<svg xmlns="http://www.w3.org/2000/svg" xmlns:xlink="http://www.w3.org/1999/xlink" width="34cm" height="10cm" viewBox="-2 66 680 198"><g><rect width="321.439" height="37" x="158.268" y="123" style="fill:#fff"/><rect width="321.439" height="37" x="158.268" y="123" style="fill:none;fill-opacity:0;stroke-width:2;stroke:#000"/></g><g><rect width="160" height="40" x="345" y="221.808" style="fill:#fff"/><rect width="160" height="40" x="345" y="221.808" style="fill:none;fill-opacity:0;stroke-width:2;stroke:#000"/><line x1="361" x2="361" y1="221.808" y2="261.808" style="fill:none;fill-opacity:0;stroke-width:2;stroke:#000"/><line x1="489" x2="489" y1="221.808" y2="261.808" style="fill:none;fill-opacity:0;stroke-width:2;stroke:#000"/></g><g><rect width="139" height="37" x="12.766" y="122.293" style="fill:#fff"/><rect width="139" height="37" x="12.766" y="122.293" style="fill:none;fill-opacity:0;stroke-width:2;stroke:#000"/></g><text x="82.266" y="145.218" font-size="12.8" style="fill:#000;text-anchor:middle;font-family:sans-serif;font-style:normal;font-weight:400"><tspan x="82.266" y="145.218">computation</tspan></text><text x="333.086" y="175.623" font-size="12.8" style="fill:#000;text-anchor:middle;font-family:sans-serif;font-style:normal;font-weight:400"><tspan x="333.086" y="175.623">transmission time</tspan></text><g><rect width="101" height="37" x="484" y="123" style="fill:#fff"/><rect width="101" height="37" x="484" y="123" style="fill:none;fill-opacity:0;stroke-width:2;stroke:#000"/></g><text x="534.5" y="145.925" font-size="12.8" style="fill:#000;text-anchor:middle;font-family:sans-serif;font-style:normal;font-weight:400"><tspan x="534.5" y="145.925">quiet time</tspan></text><g><line x1="13.311" x2="12.94" y1="83.918" y2="110.058" style="fill:none;fill-opacity:0;stroke-width:2;stroke:#000"/><polygon points="7.94 109.987 12.798 120.057 17.939 110.129" style="fill:none;fill-opacity:0;stroke-width:2;stroke:#000"/></g><text x="12.494" y="80.607" font-size="12.8" style="fill:#000;text-anchor:middle;font-family:sans-serif;font-style:normal;font-weight:400"><tspan x="12.494" y="80.607">SOC</tspan></text><text x="158.615" y="81.435" font-size="12.8" style="fill:#000;text-anchor:middle;font-family:sans-serif;font-style:normal;font-weight:400"><tspan x="158.615" y="81.435">SOR</tspan></text><g><line x1="478.588" x2="479.376" y1="81.797" y2="110.768" style="fill:none;fill-opacity:0;stroke-width:2;stroke:#000"/><polygon points="474.377 110.904 479.647 120.765 484.374 110.633" style="fill:none;fill-opacity:0;stroke-width:2;stroke:#000"/></g><text x="479.294" y="78.04" font-size="12.8" style="fill:#000;text-anchor:middle;font-family:sans-serif;font-style:normal;font-weight:400"><tspan x="479.294" y="78.04">EOR</tspan></text><g><line x1="422.142" x2="422.829" y1="161.435" y2="210.573" style="fill:none;fill-opacity:0;stroke-width:2;stroke:#000"/><polygon points="417.829 210.643 422.969 220.572 427.828 210.503" style="fill:none;fill-opacity:0;stroke-width:2;stroke:#000"/></g><text x="425" y="246.233" font-size="12.8" style="fill:#000;text-anchor:middle;font-family:sans-serif;font-style:normal;font-weight:400"><tspan x="425" y="246.233">GPSD reports</tspan></text><g><line x1="505" x2="568.764" y1="241.808" y2="241.808" style="fill:none;fill-opacity:0;stroke-width:2;stroke:#000"/><polygon points="568.764 246.808 578.764 241.808 568.764 236.808" style="fill:none;fill-opacity:0;stroke-width:2;stroke:#000"/></g><g><path d="M 599.5 222.808 L 661.5,222.808 C 670.06,222.808 677,231.762 677,242.808 C 677,253.854 670.06,262.808 661.5,262.808 L 599.5,262.808 C 590.94,262.808 584,253.854 584,242.808 C 584,231.762 590.94,222.808 599.5,222.808z" style="fill:#fff"/><path d="M 599.5 222.808 L 661.5,222.808 C 670.06,222.808 677,231.762 677,242.808 C 677,253.854 670.06,262.808 661.5,262.808 L 599.5,262.808 C 590.94,262.808 584,253.854 584,242.808 C 584,231.762 590.94,222.808 599.5,222.808" style="fill:none;fill-opacity:0;stroke-width:2;stroke:#000"/></g><text x="630.5" y="247.233" font-size="12.8" style="fill:#000;text-anchor:middle;font-family:sans-serif;font-style:normal;font-weight:400"><tspan x="630.5" y="247.233">to client</tspan></text><g><line x1="420.728" x2="420.87" y1="80.648" y2="110.509" style="fill:none;fill-opacity:0;stroke-width:2;stroke:#000"/><polygon points="415.87 110.533 420.917 120.509 425.87 110.486" style="fill:none;fill-opacity:0;stroke-width:2;stroke:#000"/></g><text x="420.02" y="78.305" font-size="12.8" style="fill:#000;text-anchor:middle;font-family:sans-serif;font-style:normal;font-weight:400"><tspan x="420.02" y="78.305">RTIME</tspan></text><g><rect width="57.276" height="27.577" x="163.218" y="128.466" style="fill:#fff"/><rect width="57.276" height="27.577" x="163.218" y="128.466" style="fill:none;fill-opacity:0;stroke-width:2;stroke:#000"/></g><text x="187.966" y="145.619" font-size="12.8" style="fill:#000;text-anchor:middle;font-family:sans-serif;font-style:normal;font-weight:400"><tspan x="187.966" y="145.619">packet</tspan></text><g><rect width="73.61" height="27.577" x="260.728" y="128.537" style="fill:#fff"/><rect width="73.61" height="27.577" x="260.728" y="128.537" style="fill:none;fill-opacity:0;stroke-width:2;stroke:#000"/></g><text x="297.532" y="146.75" font-size="12.8" style="fill:#000;text-anchor:middle;font-family:sans-serif;font-style:normal;font-weight:400"><tspan x="297.532" y="146.75">packet</tspan></text><g><rect width="80.044" height="27.577" x="339.146" y="128.607" style="fill:#fff"/><rect width="80.044" height="27.577" x="339.146" y="128.607" style="fill:none;fill-opacity:0;stroke-width:2;stroke:#000"/></g><g><rect width="50.417" height="27.577" x="423.22" y="128.678" style="fill:#fff"/><rect width="50.417" height="27.577" x="423.22" y="128.678" style="fill:none;fill-opacity:0;stroke-width:2;stroke:#000"/></g><text x="379.168" y="146.821" font-size="12.8" style="fill:#000;text-anchor:middle;font-family:sans-serif;font-style:normal;font-weight:400"><tspan x="379.168" y="146.821">packet</tspan></text><text x="448.43" y="146.892" font-size="12.8" style="fill:#000;text-anchor:middle;font-family:sans-serif;font-style:normal;font-weight:400"><tspan x="448.43" y="146.892">packet</tspan></text><g><line x1="158.268" x2="158.268" y1="83.918" y2="110.764" style="fill:none;fill-opacity:0;stroke-width:2;stroke:#000"/><polygon points="153.268 110.764 158.268 120.764 163.268 110.764" style="fill:none;fill-opacity:0;stroke-width:2;stroke:#000"/></g><g><rect width="32.598" height="27.577" x="223.958" y="128.537" style="fill:#fff"/><rect width="32.598" height="27.577" x="223.958" y="128.537" style="fill:none;fill-opacity:0;stroke-width:2.35099e-37;stroke:#fff"/></g><g><rect width="20.25" height="14.95" x="230.131" y="134.85" style="fill:#fff"/><text x="240.256" y="146.75" font-size="12.8" style="fill:#000;text-anchor:middle;font-family:sans-serif;font-style:normal;font-weight:400"><tspan x="240.256" y="146.75">. . .</tspan></text></g></svg>